<?xml version="1.0" standalone="no"?>
<!DOCTYPE svg PUBLIC "-//W3C//DTD SVG 20010904//EN"
 "http://www.w3.org/TR/2001/REC-SVG-20010904/DTD/svg10.dtd">
<svg version="1.0" xmlns="http://www.w3.org/2000/svg"
 width="96.000000pt" height="96.000000pt" viewBox="0 0 96.000000 96.000000"
 preserveAspectRatio="xMidYMid meet">

<g transform="translate(0.000000,96.000000) scale(0.100000,-0.100000)"
fill="#000000" stroke="none">
<path d="M285 886 c-61 -28 -87 -56 -116 -120 -36 -83 -10 -197 60 -260 l21
-19 -43 -27 c-103 -65 -151 -154 -151 -280 l-1 -84 75 -20 c60 -15 110 -19
250 -19 140 0 190 4 250 19 l75 20 -1 84 c-1 127 -49 215 -151 280 l-42 27 25
24 c67 62 91 173 55 255 -12 27 -32 60 -44 73 -33 36 -115 71 -167 71 -26 0
-66 -10 -95 -24z m158 -50 c44 -18 95 -78 103 -121 11 -60 -4 -106 -50 -151
-45 -46 -91 -61 -151 -50 -43 8 -103 59 -121 103 -57 135 84 276 219 219z m9
-396 c104 -29 185 -128 195 -239 6 -68 15 -62 -132 -82 -98 -13 -254 -7 -349
12 l-58 12 5 59 c15 168 178 282 339 238z"/>
<path d="M757 704 c-4 -4 -7 -27 -7 -50 l0 -43 -47 -3 c-44 -3 -48 -5 -48 -28
0 -23 4 -25 47 -28 l47 -3 3 -47 c3 -43 5 -47 28 -47 23 0 25 4 28 47 l3 47
47 3 c43 3 47 5 47 28 0 23 -4 25 -47 28 l-47 3 -3 47 c-2 38 -7 48 -23 50
-12 2 -24 0 -28 -4z"/>
</g>
</svg>
